<?xml version="1.0"?>
<svg width="363.605" height="363.605" xmlns="http://www.w3.org/2000/svg">

 <g>
  <title>background</title>
  <rect fill="none" id="canvas_background" height="402" width="582" y="-1" x="-1"/>
 </g>
 <g>
  <title>Layer 1</title>
  <g fill="white" id="svg_1">
   <g id="svg_2">
    <path id="svg_3" d="m192.485992,63.958c-5.348007,0 -8.669998,4.827003 -8.669998,12.602997c0.070999,7.678001 3.246002,12.448006 8.284988,12.448006c5.51001,0 8.670013,-4.655006 8.670013,-12.771004c0,-7.688995 -3.097,-12.279999 -8.285004,-12.279999zm-0.210999,21.167999c-2.391006,0 -3.875,-3.270996 -3.875,-8.537003c0,-5.312996 1.535004,-8.746994 3.912003,-8.746994c3.369995,0 3.873001,5.348999 3.873001,8.536995c0.001007,3.267006 -0.507004,8.747002 -3.910004,8.747002z"/>
   </g>
   <g id="svg_4">
    <path id="svg_5" d="m204.798004,70.288002c0.056992,0.224998 0.213989,0.409996 0.425995,0.502998c0.212006,0.093002 0.453995,0.083 0.658005,-0.026001l2.925003,-1.579002l0,18.687004c0,0.414001 0.335999,0.75 0.75,0.75l2.979996,0c0.414001,0 0.75,-0.335999 0.75,-0.75l0,-22.778999c0,-0.414001 -0.335999,-0.75 -0.75,-0.75l-2.630997,0c-0.123001,0 -0.24501,0.029999 -0.354004,0.088997l-4.975006,2.662003c-0.304001,0.163002 -0.457993,0.511002 -0.373993,0.845001l0.595001,2.348z"/>
   </g>
   <g id="svg_6">
    <path id="svg_7" d="m226.994003,89.009003c5.511002,0 8.671997,-4.655006 8.671997,-12.771004c0,-7.688995 -3.098007,-12.279999 -8.285004,-12.279999c-5.347992,0 -8.669998,4.827003 -8.669998,12.602997c0.069,7.679001 3.242996,12.448006 8.283005,12.448006zm0.210999,-21.167c3.373001,0 3.876999,5.348999 3.876999,8.536995c0,3.267006 -0.507996,8.747002 -3.912003,8.747002c-2.391998,0 -3.876999,-3.270996 -3.876999,-8.537003c0,-5.312996 1.535004,-8.746994 3.912003,-8.746994z"/>
   </g>
   <g id="svg_8">
    <path id="svg_9" d="m247.429993,63.958c-5.348007,0 -8.669998,4.827003 -8.669998,12.602997c0.070999,7.678001 3.246002,12.448006 8.284988,12.448006c5.511002,0 8.672012,-4.655006 8.672012,-12.771004c0,-7.688995 -3.097992,-12.279999 -8.287003,-12.279999zm-0.209,21.167999c-2.391998,0 -3.876999,-3.270996 -3.876999,-8.537003c0,-5.312996 1.534988,-8.746994 3.912003,-8.746994c3.370987,0 3.875,5.348999 3.875,8.536995c0,3.267006 -0.507996,8.747002 -3.910004,8.747002z"/>
   </g>
   <g id="svg_10">
    <path id="svg_11" d="m259.740997,70.288002c0.057007,0.224998 0.213989,0.409996 0.425995,0.502998c0.210999,0.093002 0.45401,0.083 0.65802,-0.026001l2.927002,-1.579002l0,18.687004c0,0.414001 0.335999,0.75 0.75,0.75l2.978973,0c0.414001,0 0.75,-0.335999 0.75,-0.75l0,-22.778999c0,-0.414001 -0.335999,-0.75 -0.75,-0.75l-2.628998,0c-0.122986,0 -0.244995,0.029999 -0.354004,0.088997l-4.974976,2.662003c-0.304016,0.162003 -0.458008,0.511002 -0.374023,0.844002l0.59201,2.348999z"/>
   </g>
   <g id="svg_12">
    <path id="svg_13" d="m283.391998,63.958c-5.347992,0 -8.670013,4.827003 -8.670013,12.602997c0.071014,7.678001 3.246002,12.448006 8.285004,12.448006c5.51001,0 8.670013,-4.655006 8.670013,-12.771004c0.001007,-7.688995 -3.097015,-12.279999 -8.285004,-12.279999zm-0.209991,21.167999c-2.390991,0 -3.875,-3.270996 -3.875,-8.537003c0,-5.312996 1.535004,-8.746994 3.912018,-8.746994c3.370972,0 3.875,5.348999 3.875,8.536995c-0.000031,3.267006 -0.508026,8.747002 -3.912018,8.747002z"/>
   </g>
   <g id="svg_14">
    <path id="svg_15" d="m295.705994,70.288002c0.057007,0.224998 0.213989,0.409996 0.425995,0.502998c0.213013,0.093002 0.45401,0.083 0.65799,-0.026001l2.925018,-1.579002l0,18.688004c0,0.414001 0.335999,0.75 0.75,0.75l2.977997,0c0.414001,0 0.75,-0.335999 0.75,-0.75l0,-22.779999c0,-0.414001 -0.335999,-0.75 -0.75,-0.75l-2.628998,0c-0.123016,0 -0.244995,0.029999 -0.352997,0.088997l-4.975006,2.662003c-0.304016,0.163002 -0.458008,0.511002 -0.373993,0.845001l0.593994,2.348z"/>
   </g>
   <g id="svg_16">
    <path id="svg_17" d="m318.971008,89.009003c5.511017,0 8.671997,-4.655006 8.671997,-12.771004c0,-7.688995 -3.097992,-12.279999 -8.285004,-12.279999c-5.348999,0 -8.671997,4.827003 -8.671997,12.602997c0.070984,7.679001 3.246002,12.448006 8.285004,12.448006zm0.210999,-21.167c3.371002,0 3.875,5.348999 3.875,8.536995c0,3.267006 -0.507996,8.747002 -3.910004,8.747002c-2.391998,0 -3.876984,-3.270996 -3.876984,-8.537003c-0.000031,-5.312996 1.534973,-8.746994 3.911987,-8.746994z"/>
   </g>
   <g id="svg_18">
    <path id="svg_19" d="m331.666992,70.288002c0.057007,0.224998 0.213989,0.409996 0.425995,0.502998c0.213013,0.093002 0.45401,0.083 0.65799,-0.026001l2.925018,-1.579002l0,18.687004c0,0.414001 0.335999,0.75 0.75,0.75l2.979004,0c0.414001,0 0.75,-0.335999 0.75,-0.75l0,-22.778999c0,-0.414001 -0.335999,-0.75 -0.75,-0.75l-2.627014,0c-0.122986,0 -0.244995,0.029999 -0.354004,0.088997l-4.97699,2.662003c-0.304016,0.162003 -0.458008,0.511002 -0.373993,0.845001l0.593994,2.348z"/>
   </g>
   <g id="svg_20">
    <path id="svg_21" d="m355.320007,63.958c-5.348999,0 -8.671997,4.827003 -8.671997,12.602997c0.071014,7.678001 3.246002,12.448006 8.285004,12.448006c5.510986,0 8.671997,-4.655006 8.671997,-12.771004c0,-7.688995 -3.097015,-12.279999 -8.285004,-12.279999zm-0.213013,21.167999c-2.389008,0 -3.873016,-3.270996 -3.873016,-8.537003c0,-5.312996 1.535004,-8.746994 3.910004,-8.746994c3.373016,0 3.877014,5.348999 3.877014,8.536995c0.001007,3.267006 -0.507996,8.747002 -3.914001,8.747002z"/>
   </g>
   <g id="svg_22">
    <path id="svg_23" d="m191.574005,130.686005l2.980011,0c0.414001,0 0.75,-0.335999 0.75,-0.75l0,-22.778992c0,-0.414001 -0.335999,-0.75 -0.75,-0.75l-2.629013,0c-0.122986,0 -0.244995,0.029999 -0.353989,0.088997l-4.97702,2.662003c-0.304993,0.162994 -0.457993,0.510994 -0.373001,0.846001l0.596008,2.348999c0.056992,0.223999 0.214005,0.408997 0.425003,0.501999c0.212997,0.093002 0.453995,0.083 0.658005,-0.026001l2.923004,-1.578003l0,18.686005c0.000992,0.413986 0.33699,0.748993 0.750992,0.748993z"/>
   </g>
   <g id="svg_24">
    <path id="svg_25" d="m210.082001,131.072006c5.511002,0 8.671997,-4.653999 8.671997,-12.769997c0,-7.689003 -3.097992,-12.279999 -8.285004,-12.279999c-5.348999,0 -8.671997,4.825996 -8.671997,12.601997c0.070999,7.678993 3.246002,12.447998 8.285004,12.447998zm0.210999,-21.167007c3.371002,0 3.875,5.348999 3.875,8.537003c0,3.266998 -0.507996,8.747002 -3.910004,8.747002c-2.391998,0 -3.876999,-3.271004 -3.876999,-8.538002c0,-5.313004 1.535004,-8.746002 3.912003,-8.746002z"/>
   </g>
   <g id="svg_26">
    <path id="svg_27" d="m223.862,112.829002l2.927002,-1.580002l0,18.687004c0,0.414001 0.335999,0.75 0.75,0.75l2.979004,0c0.414001,0 0.75,-0.335999 0.75,-0.75l0,-22.779007c0,-0.414001 -0.335999,-0.75 -0.75,-0.75l-2.628998,0c-0.123001,0 -0.24501,0.029999 -0.354004,0.089005l-4.977005,2.661995c-0.304001,0.162003 -0.457993,0.511002 -0.373993,0.845001l0.593994,2.348999c0.057007,0.225006 0.214005,0.410004 0.425995,0.503006c0.213013,0.092995 0.45401,0.083 0.658005,-0.026001z"/>
   </g>
   <g id="svg_28">
    <path id="svg_29" d="m246.044998,131.072006c5.511002,0 8.671997,-4.653999 8.671997,-12.769997c0,-7.689003 -3.097992,-12.279999 -8.287003,-12.279999c-5.347992,0 -8.669998,4.825996 -8.669998,12.601997c0.070999,7.678993 3.246002,12.447998 8.285004,12.447998zm0.210999,-21.167007c3.371002,0 3.875,5.348999 3.875,8.537003c0,3.266998 -0.507996,8.747002 -3.910004,8.747002c-2.391998,0 -3.876999,-3.271004 -3.876999,-8.538002c0,-5.313004 1.535004,-8.746002 3.912003,-8.746002z"/>
   </g>
   <g id="svg_30">
    <path id="svg_31" d="m258.740997,112.351997c0.057007,0.225006 0.213989,0.410004 0.425995,0.503006c0.210999,0.092995 0.45401,0.083 0.65802,-0.026001l2.927002,-1.579002l0,18.686005c0,0.414001 0.335999,0.75 0.75,0.75l2.978973,0c0.414001,0 0.75,-0.335999 0.75,-0.75l0,-22.779007c0,-0.414001 -0.335999,-0.75 -0.75,-0.75l-2.628998,0c-0.122986,0 -0.244995,0.029999 -0.354004,0.089005l-4.974976,2.661995c-0.304016,0.162003 -0.458008,0.511002 -0.374023,0.844002l0.59201,2.349998z"/>
   </g>
   <g id="svg_32">
    <path id="svg_33" d="m282.391998,106.022003c-5.347992,0 -8.670013,4.825996 -8.670013,12.601997c0.071014,7.678001 3.246002,12.448006 8.285004,12.448006c5.51001,0 8.670013,-4.654007 8.670013,-12.770004c0.001007,-7.689003 -3.097015,-12.279999 -8.285004,-12.279999zm-0.209991,21.167c-2.390991,0 -3.875,-3.271004 -3.875,-8.538002c0,-5.313004 1.535004,-8.747002 3.912018,-8.747002c3.370972,0 3.875,5.348999 3.875,8.537003c-0.000031,3.267998 -0.508026,8.748001 -3.912018,8.748001z"/>
   </g>
   <g id="svg_34">
    <path id="svg_35" d="m300.98999,131.072006c5.51001,0 8.670013,-4.653999 8.670013,-12.769997c0,-7.689003 -3.098022,-12.279999 -8.285004,-12.279999c-5.348022,0 -8.670013,4.825996 -8.670013,12.601997c0.069,7.678993 3.244019,12.447998 8.285004,12.447998zm0.209015,-21.167007c3.371002,0 3.875,5.348999 3.875,8.537003c0,3.266998 -0.507996,8.747002 -3.910004,8.747002c-2.390991,0 -3.875,-3.271004 -3.875,-8.538002c0,-5.313004 1.535004,-8.746002 3.910004,-8.746002z"/>
   </g>
   <g id="svg_36">
    <path id="svg_37" d="m318.445007,130.686005l2.977997,0c0.414001,0 0.75,-0.335999 0.75,-0.75l0,-22.778992c0,-0.414001 -0.335999,-0.75 -0.75,-0.75l-2.626984,0c-0.123016,0 -0.245026,0.029999 -0.354004,0.088997l-4.97702,2.662003c-0.303986,0.161995 -0.457977,0.510994 -0.373993,0.845001l0.593994,2.348999c0.057007,0.224998 0.21402,0.409996 0.426025,0.502998c0.212982,0.093002 0.453979,0.083 0.65799,-0.026001l2.924988,-1.579002l0,18.685997c0.001007,0.414993 0.337006,0.75 0.751007,0.75z"/>
   </g>
   <g id="svg_38">
    <path id="svg_39" d="m337.338013,106.022003c-5.348999,0 -8.671997,4.825996 -8.671997,12.601997c0.070984,7.678001 3.246002,12.448006 8.285004,12.448006c5.510986,0 8.671997,-4.654007 8.671997,-12.770004c-0.000031,-7.689003 -3.098022,-12.279999 -8.285004,-12.279999zm-0.210999,21.167c-2.390991,0 -3.875,-3.271004 -3.875,-8.538002c0,-5.313004 1.535004,-8.747002 3.910004,-8.747002c3.371002,0 3.875,5.348999 3.875,8.537003c-0.000031,3.267998 -0.508026,8.748001 -3.910004,8.748001z"/>
   </g>
   <g id="svg_40">
    <path id="svg_41" d="m192.485992,148.085007c-5.348007,0 -8.669998,4.826004 -8.669998,12.602005c0.070999,7.677994 3.246002,12.447998 8.284988,12.447998c5.51001,0 8.670013,-4.654007 8.670013,-12.768997c0,-7.690018 -3.097,-12.281006 -8.285004,-12.281006zm-0.210999,21.167999c-2.391006,0 -3.875,-3.270996 -3.875,-8.537003c0,-5.313995 1.535004,-8.747986 3.912003,-8.747986c3.369995,0 3.873001,5.348999 3.873001,8.536987c0.001007,3.266998 -0.507004,8.748001 -3.910004,8.748001z"/>
   </g>
   <g id="svg_42">
    <path id="svg_43" d="m211.468994,148.085007c-5.348999,0 -8.671997,4.826004 -8.671997,12.602005c0.070999,7.677994 3.245987,12.447998 8.284988,12.447998c5.511002,0 8.671997,-4.654007 8.671997,-12.768997c0.000015,-7.690018 -3.097977,-12.281006 -8.284988,-12.281006zm-0.210999,21.167999c-2.391998,0 -3.876999,-3.270996 -3.876999,-8.537003c0,-5.313995 1.535004,-8.747986 3.912003,-8.747986c3.371002,0 3.875,5.348999 3.875,8.536987c0,3.266998 -0.507996,8.748001 -3.910004,8.748001z"/>
   </g>
   <g id="svg_44">
    <path id="svg_45" d="m228.539001,172.75l2.979004,0c0.414001,0 0.75,-0.335999 0.75,-0.75l0,-22.779007c0,-0.413986 -0.335999,-0.75 -0.75,-0.75l-2.628998,0c-0.123001,0 -0.24501,0.030014 -0.354004,0.089005l-4.977005,2.66301c-0.304001,0.162994 -0.457993,0.510986 -0.373993,0.844986l0.593994,2.348007c0.057007,0.223999 0.214005,0.410004 0.425995,0.501999c0.212006,0.093002 0.45401,0.083008 0.658005,-0.026001l2.927002,-1.578995l0,18.686996c0,0.414001 0.335999,0.75 0.75,0.75z"/>
   </g>
   <g id="svg_46">
    <path id="svg_47" d="m247.429993,148.085007c-5.348007,0 -8.669998,4.826004 -8.669998,12.602005c0.070999,7.677994 3.246002,12.447998 8.284988,12.447998c5.511002,0 8.672012,-4.654007 8.672012,-12.768997c0,-7.690018 -3.097992,-12.281006 -8.287003,-12.281006zm-0.209,21.167999c-2.391998,0 -3.876999,-3.270996 -3.876999,-8.537003c0,-5.313995 1.534988,-8.747986 3.912003,-8.747986c3.370987,0 3.875,5.348999 3.875,8.536987c0,3.266998 -0.507996,8.748001 -3.910004,8.748001z"/>
   </g>
   <g id="svg_48">
    <path id="svg_49" d="m266.027008,173.134995c5.51001,0 8.670013,-4.654007 8.670013,-12.768997c0,-7.690002 -3.098022,-12.281006 -8.285004,-12.281006c-5.348022,0 -8.670013,4.826004 -8.670013,12.602005c0.070984,7.679001 3.246002,12.447998 8.285004,12.447998zm0.210999,-21.166992c3.371002,0 3.875,5.348999 3.875,8.537003c0,3.266998 -0.507996,8.748001 -3.911987,8.748001c-2.391022,0 -3.875,-3.271011 -3.875,-8.537003c-0.000031,-5.315002 1.534973,-8.748001 3.911987,-8.748001z"/>
   </g>
   <g id="svg_50">
    <path id="svg_51" d="m286.460999,148.470993l-2.628998,0c-0.122986,0 -0.244995,0.029999 -0.354004,0.089005l-4.975006,2.662994c-0.303986,0.162994 -0.457977,0.511002 -0.373993,0.843994l0.59201,2.348007c0.057007,0.224991 0.213989,0.410004 0.425995,0.502991c0.210999,0.093002 0.45401,0.083008 0.656982,-0.026001l2.928009,-1.577988l0,18.686005c0,0.414001 0.335999,0.75 0.75,0.75l2.979004,0c0.414001,0 0.75,-0.335999 0.75,-0.75l0,-22.779007c0,-0.413986 -0.335999,-0.75 -0.75,-0.75z"/>
   </g>
   <g id="svg_52">
    <path id="svg_53" d="m302.375,148.085007c-5.347992,0 -8.670013,4.826004 -8.670013,12.602005c0.069,7.677994 3.244019,12.447998 8.285004,12.447998c5.51001,0 8.670013,-4.654007 8.670013,-12.768997c0,-7.690018 -3.097015,-12.281006 -8.285004,-12.281006zm-0.210999,21.167999c-2.390991,0 -3.875,-3.270996 -3.875,-8.537003c0,-5.313995 1.535004,-8.747986 3.910004,-8.747986c3.371002,0 3.875,5.348999 3.875,8.536987c0,3.266998 -0.507996,8.748001 -3.910004,8.748001z"/>
   </g>
   <g id="svg_54">
    <path id="svg_55" d="m192.485992,190.147995c-5.348007,0 -8.669998,4.826004 -8.669998,12.602005c0.070999,7.677994 3.246002,12.446991 8.284988,12.446991c5.51001,0 8.670013,-4.654007 8.670013,-12.770004c0,-7.687988 -3.097,-12.278992 -8.285004,-12.278992zm-0.210999,21.167999c-2.391006,0 -3.875,-3.271011 -3.875,-8.537003c0,-5.313995 1.535004,-8.748001 3.912003,-8.748001c3.369995,0 3.873001,5.348999 3.873001,8.537994c0.001007,3.266022 -0.507004,8.747009 -3.910004,8.747009z"/>
   </g>
   <g id="svg_56">
    <path id="svg_57" d="m211.082001,215.197998c5.511002,0 8.671997,-4.653992 8.671997,-12.770004c0,-7.688995 -3.097992,-12.279999 -8.285004,-12.279999c-5.348999,0 -8.671997,4.826004 -8.671997,12.602005c0.070999,7.679001 3.246002,12.447998 8.285004,12.447998zm0.210999,-21.166992c3.371002,0 3.875,5.348999 3.875,8.53801c0,3.266998 -0.507996,8.746994 -3.910004,8.746994c-2.391998,0 -3.876999,-3.270996 -3.876999,-8.537003c0,-5.314011 1.535004,-8.748001 3.912003,-8.748001z"/>
   </g>
   <g id="svg_58">
    <path id="svg_59" d="m224.203995,196.981995c0.21199,0.093994 0.453995,0.082993 0.65799,-0.026001l2.927002,-1.580002l0,18.688004c0,0.414001 0.335999,0.75 0.75,0.75l2.979004,0c0.414001,0 0.75,-0.335999 0.75,-0.75l0,-22.778992c0,-0.414001 -0.335999,-0.75 -0.75,-0.75l-2.628998,0c-0.123001,0 -0.244995,0.029999 -0.354004,0.088989l-4.977005,2.66301c-0.304001,0.162994 -0.457993,0.511002 -0.373993,0.845001l0.593994,2.347992c0.057022,0.223999 0.21402,0.409012 0.42601,0.501999z"/>
   </g>
   <g id="svg_60">
    <path id="svg_61" d="m245.770004,214.063004c0,0.414001 0.335999,0.75 0.75,0.75l2.978989,0c0.414001,0 0.75,-0.335999 0.75,-0.75l0,-22.779007c0,-0.414001 -0.335999,-0.75 -0.75,-0.75l-2.626999,0c-0.123001,0 -0.244995,0.029999 -0.353989,0.089005l-4.977005,2.662994c-0.304001,0.16301 -0.458008,0.511002 -0.373993,0.845001l0.593994,2.348007c0.056992,0.223999 0.214005,0.410004 0.425995,0.501999c0.212006,0.093994 0.45401,0.082993 0.658005,-0.026001l2.925003,-1.578995l0,18.686996z"/>
   </g>
   <g id="svg_62">
    <path id="svg_63" d="m265.027008,215.197998c5.51001,0 8.670013,-4.653992 8.670013,-12.770004c0,-7.688995 -3.098022,-12.279999 -8.285004,-12.279999c-5.348022,0 -8.670013,4.826004 -8.670013,12.602005c0.070984,7.679001 3.246002,12.447998 8.285004,12.447998zm0.210999,-21.166992c3.371002,0 3.875,5.348999 3.875,8.53801c0,3.266998 -0.507996,8.746994 -3.911987,8.746994c-2.391022,0 -3.875,-3.270996 -3.875,-8.537003c-0.000031,-5.314011 1.534973,-8.748001 3.911987,-8.748001z"/>
   </g>
   <g id="svg_64">
    <path id="svg_65" d="m285.460999,190.533997l-2.628998,0c-0.122986,0 -0.244995,0.029999 -0.354004,0.089005l-4.975006,2.662994c-0.303986,0.16301 -0.457977,0.511002 -0.373993,0.844009l0.59201,2.347992c0.057007,0.225006 0.213989,0.410004 0.425995,0.503006c0.210999,0.093994 0.45401,0.082993 0.65799,-0.026001l2.927002,-1.578995l0,18.685989c0,0.414001 0.335999,0.75 0.75,0.75l2.979004,0c0.414001,0 0.75,-0.335999 0.75,-0.75l0,-22.778992c0,-0.41301 -0.335999,-0.749008 -0.75,-0.749008z"/>
   </g>
   <g id="svg_66">
    <path id="svg_67" d="m301.375,190.147995c-5.347992,0 -8.670013,4.826004 -8.670013,12.602005c0.069,7.677994 3.244019,12.446991 8.285004,12.446991c5.51001,0 8.670013,-4.654007 8.670013,-12.770004c0,-7.687988 -3.097015,-12.278992 -8.285004,-12.278992zm-0.210999,21.167999c-2.390991,0 -3.875,-3.271011 -3.875,-8.537003c0,-5.313995 1.535004,-8.748001 3.910004,-8.748001c3.371002,0 3.875,5.348999 3.875,8.537994c0,3.266022 -0.507996,8.747009 -3.910004,8.747009z"/>
   </g>
   <g id="svg_68">
    <path id="svg_69" d="m320.356995,190.147995c-5.348999,0 -8.671997,4.826004 -8.671997,12.602005c0.070984,7.677994 3.246002,12.446991 8.285004,12.446991c5.510986,0 8.671997,-4.654007 8.671997,-12.770004c0,-7.687988 -3.096985,-12.278992 -8.285004,-12.278992zm-0.209991,21.167999c-2.391998,0 -3.877014,-3.271011 -3.877014,-8.537003c0,-5.313995 1.535004,-8.748001 3.912018,-8.748001c3.371002,0 3.875,5.348999 3.875,8.537994c0,3.266022 -0.507996,8.747009 -3.910004,8.747009z"/>
   </g>
   <g id="svg_70">
    <path id="svg_71" d="m340.403992,190.533997l-2.627014,0c-0.122986,0 -0.244995,0.029999 -0.353973,0.089005l-4.97702,2.662994c-0.303986,0.16301 -0.458008,0.511002 -0.373993,0.845001l0.593994,2.348007c0.057007,0.223999 0.21402,0.410004 0.425995,0.501999c0.213013,0.093994 0.45401,0.082993 0.65802,-0.026001l2.924988,-1.578995l0,18.685989c0,0.414001 0.335999,0.75 0.75,0.75l2.979004,0c0.414001,0 0.75,-0.335999 0.75,-0.75l0,-22.778992c0,-0.41301 -0.335999,-0.749008 -0.75,-0.749008z"/>
   </g>
   <g id="svg_72">
    <path id="svg_73" d="m339.334015,262.980011l-293.492016,0l0,-178.067009l128.992001,0l0,-20l-138.667999,0c-5.701,0 -10.324001,4.622002 -10.324001,10.323997l0,187.743011l-7.507999,0c-10.125,0 -18.334,8.207977 -18.334,18.333984c0,10.125 8.209,18.333008 18.334,18.333008l321.000015,0c10.125,0 18.333984,-8.208008 18.333984,-18.333008c0,-10.126007 -8.208984,-18.333984 -18.333984,-18.333984zm-150.822021,23.655975l-19.355011,0c-2.938995,0 -5.321991,-2.382996 -5.321991,-5.321991c0,-2.938995 2.382996,-5.321991 5.321991,-5.321991l19.355011,0c2.938995,0 5.321991,2.382996 5.321991,5.321991c0.000015,2.938995 -2.38298,5.321991 -5.321991,5.321991z"/>
    <path id="svg_74" d="m192.102005,257.261993c5.51001,0 8.669998,-4.654999 8.669998,-12.770996c0,-7.689011 -3.097992,-12.280014 -8.284988,-12.280014c-5.348007,0 -8.669998,4.826004 -8.669998,12.603012c0.070984,7.678009 3.245987,12.447998 8.284988,12.447998zm0.210999,-21.166992c3.369995,0 3.873001,5.348999 3.873001,8.537003c0,3.266998 -0.508011,8.746994 -3.910004,8.746994c-2.391006,0 -3.875,-3.270996 -3.875,-8.537003c-0.001007,-5.313995 1.535004,-8.746994 3.912003,-8.746994z"/>
   </g>
   <g id="svg_75">
    <path id="svg_76" d="m212.468994,232.210999c-5.348999,0 -8.671997,4.826004 -8.671997,12.602997c0.070999,7.678009 3.245987,12.447998 8.284988,12.447998c5.511002,0 8.671997,-4.654999 8.671997,-12.770996c0.000015,-7.688995 -3.097977,-12.279999 -8.284988,-12.279999zm-0.210999,21.167999c-2.391998,0 -3.876999,-3.270996 -3.876999,-8.537003c0,-5.312988 1.535004,-8.746994 3.912003,-8.746994c3.371002,0 3.875,5.348999 3.875,8.537003c0,3.265991 -0.507996,8.746994 -3.910004,8.746994z"/>
   </g>
   <g id="svg_77">
    <path id="svg_78" d="m232.449005,232.210999c-5.347992,0 -8.669998,4.826004 -8.669998,12.602997c0.069,7.678009 3.242996,12.447998 8.283005,12.447998c5.511002,0 8.671982,-4.654999 8.671982,-12.770996c0,-7.688995 -3.097,-12.279999 -8.284988,-12.279999zm-0.210999,21.167999c-2.391998,0 -3.876999,-3.270996 -3.876999,-8.537003c0,-5.312988 1.535004,-8.746994 3.912003,-8.746994c3.373001,0 3.876999,5.348999 3.876999,8.537003c-0.000015,3.265991 -0.507004,8.746994 -3.912003,8.746994z"/>
   </g>
   <g id="svg_79">
    <path id="svg_80" d="m252.498001,232.597l-2.626999,0c-0.123001,0 -0.244995,0.029999 -0.354004,0.089005l-4.977005,2.664001c-0.304001,0.162994 -0.457993,0.510986 -0.373993,0.845001l0.593994,2.347992c0.057007,0.223999 0.214005,0.410004 0.42601,0.503006c0.212997,0.093002 0.453995,0.082993 0.65799,-0.026001l2.925003,-1.57901l0,18.68602c0,0.413971 0.335999,0.75 0.75,0.75l2.979004,0c0.414001,0 0.75,-0.336029 0.75,-0.75l0,-22.779007c0,-0.415009 -0.335999,-0.751007 -0.75,-0.751007z"/>
   </g>
   <g id="svg_81">
    <path id="svg_82" d="m268.411987,232.210999c-5.347992,0 -8.669983,4.826004 -8.669983,12.602997c0.070984,7.678009 3.245972,12.447998 8.284973,12.447998c5.51001,0 8.670013,-4.654999 8.670013,-12.770996c0,-7.688995 -3.096985,-12.279999 -8.285004,-12.279999zm-0.210999,21.167999c-2.390991,0 -3.875,-3.270996 -3.875,-8.537003c0,-5.312988 1.535004,-8.746994 3.911987,-8.746994c3.371002,0 3.875,5.348999 3.875,8.537003c0.000031,3.265991 -0.507965,8.746994 -3.911987,8.746994z"/>
   </g>
  </g>
  <g id="svg_83"/>
  <g id="svg_84"/>
  <g id="svg_85"/>
  <g id="svg_86"/>
  <g id="svg_87"/>
  <g id="svg_88"/>
  <g id="svg_89"/>
  <g id="svg_90"/>
  <g id="svg_91"/>
  <g id="svg_92"/>
  <g id="svg_93"/>
  <g id="svg_94"/>
  <g id="svg_95"/>
  <g id="svg_96"/>
  <g id="svg_97"/>
 </g>
</svg>