<?xml version="1.0" encoding="UTF-8" ?>
<!DOCTYPE svg PUBLIC "-//W3C//DTD SVG 1.1//EN" "http://www.w3.org/Graphics/SVG/1.1/DTD/svg11.dtd">
<svg width="226pt" height="221pt" viewBox="0 0 226 221" version="1.1" xmlns="http://www.w3.org/2000/svg">
<path fill="#ffffff" d=" M 0.00 0.00 L 105.92 0.00 C 104.60 0.18 103.28 0.38 101.96 0.58 C 102.46 4.98 103.04 9.38 103.69 13.76 C 105.90 13.65 108.12 13.54 110.34 13.42 C 109.88 8.95 109.53 4.47 109.16 0.00 L 111.25 0.00 C 111.55 4.26 111.63 8.52 111.81 12.78 C 114.03 12.77 116.25 12.73 118.48 12.69 C 118.45 8.46 118.45 4.23 118.39 0.00 L 124.83 0.00 C 124.82 4.62 124.46 9.24 124.80 13.86 C 128.57 10.33 127.04 4.61 127.51 0.00 L 226.00 0.00 L 226.00 221.00 L 0.00 221.00 L 0.00 120.45 C 5.13 120.88 10.30 120.90 15.42 120.33 C 11.27 116.52 5.06 118.87 0.01 118.55 L 0.00 117.87 L 0.00 0.00 Z" />
<path fill="#1b72ab" d=" M 105.92 0.00 L 109.16 0.00 C 109.53 4.47 109.88 8.95 110.34 13.42 C 108.12 13.54 105.90 13.65 103.69 13.76 C 103.04 9.38 102.46 4.98 101.96 0.58 C 103.28 0.38 104.60 0.18 105.92 0.00 Z" />
<path fill="#1b72ab" d=" M 111.25 0.00 L 118.39 0.00 C 118.45 4.23 118.45 8.46 118.48 12.69 C 116.25 12.73 114.03 12.77 111.81 12.78 C 111.63 8.52 111.55 4.26 111.25 0.00 Z" />
<path fill="#1b72ab" d=" M 124.83 0.00 L 127.51 0.00 C 127.04 4.61 128.57 10.33 124.80 13.86 C 124.46 9.24 124.82 4.62 124.83 0.00 Z" />
<path fill="#1b72ab" d=" M 134.38 1.00 C 136.83 1.02 139.28 1.08 141.74 1.17 C 140.81 5.59 139.93 10.03 139.24 14.49 C 137.03 14.19 134.83 13.84 132.63 13.51 C 133.27 9.35 133.73 5.16 134.38 1.00 Z" />
<path fill="#1b72ab" d=" M 94.90 2.11 L 96.35 1.27 C 98.09 5.58 98.80 10.31 99.31 14.91 L 97.68 15.54 C 95.98 11.46 95.37 7.02 94.54 2.70 L 94.90 2.11 Z" />
<path fill="#1b72ab" d=" M 143.64 1.63 C 145.98 2.10 148.32 2.56 150.68 2.97 C 149.68 7.35 148.50 11.68 147.39 16.03 C 145.28 15.70 143.19 15.35 141.09 15.00 C 141.67 10.49 142.68 6.06 143.64 1.63 Z" />
<path fill="#1b72ab" d=" M 80.92 5.80 C 83.16 5.11 85.40 4.39 87.63 3.66 C 89.09 7.92 90.14 12.30 91.51 16.58 C 89.45 17.33 87.36 18.01 85.26 18.67 C 83.76 14.40 82.18 10.15 80.92 5.80 Z" />
<path fill="#1b72ab" d=" M 157.06 5.23 C 157.71 5.37 159.02 5.65 159.67 5.79 C 158.22 10.09 156.77 14.38 155.22 18.64 C 154.44 18.43 153.66 18.23 152.89 18.03 C 154.34 13.78 155.67 9.49 157.06 5.23 Z" />
<path fill="#1b72ab" d=" M 72.10 9.30 C 74.37 8.38 76.65 7.48 78.93 6.57 C 80.39 10.81 81.96 15.01 83.57 19.19 C 81.57 20.07 79.57 20.95 77.57 21.84 C 75.81 17.63 73.87 13.50 72.10 9.30 Z" />
<path fill="#1b72ab" d=" M 165.88 8.37 C 168.13 9.28 170.37 10.22 172.63 11.12 C 170.78 15.27 168.68 19.30 166.78 23.43 C 164.77 22.60 162.76 21.76 160.75 20.95 C 162.40 16.74 164.21 12.58 165.88 8.37 Z" />
<path fill="#1b72ab" d=" M 63.74 13.32 C 64.31 13.06 65.45 12.53 66.02 12.27 C 68.21 16.29 70.27 20.38 72.13 24.57 C 71.52 24.65 70.29 24.82 69.68 24.91 C 67.76 21.02 65.71 17.19 63.74 13.32 Z" />
<path fill="#1b72ab" d=" M 168.27 24.29 C 170.31 20.22 172.32 16.13 174.58 12.17 C 176.67 13.39 178.76 14.60 180.85 15.83 C 178.51 19.69 176.29 23.63 174.00 27.53 C 172.09 26.45 170.18 25.37 168.27 24.29 Z" />
<path fill="#1b72ab" d=" M 51.64 20.76 C 53.75 19.38 55.88 18.06 58.08 16.85 C 60.33 20.68 62.49 24.57 64.92 28.30 C 63.13 29.48 61.36 30.67 59.59 31.86 C 56.84 28.23 54.23 24.50 51.64 20.76 Z" />
<path fill="#1b72ab" d=" M 57.82 38.63 C 84.40 17.52 121.84 11.56 153.92 22.26 C 156.61 23.07 156.34 27.10 159.20 27.77 C 180.45 36.35 198.40 52.59 209.43 72.64 C 207.78 72.72 206.14 72.80 204.50 72.86 C 193.89 53.69 176.14 38.48 155.36 31.40 C 152.21 34.73 148.12 32.22 144.47 31.34 C 118.21 24.33 88.81 29.70 66.94 45.91 C 64.58 47.52 61.32 47.10 59.24 49.22 C 41.97 64.12 30.19 85.38 27.26 108.05 C 24.43 128.36 28.44 149.60 38.66 167.39 C 49.85 187.53 68.73 203.23 90.54 210.63 C 94.14 211.92 98.04 212.55 101.32 214.61 C 106.48 218.20 113.11 217.46 119.06 217.87 C 137.77 218.49 156.54 213.19 172.41 203.33 C 185.53 195.21 196.44 183.76 204.49 170.63 C 204.68 171.97 204.85 173.31 205.03 174.65 C 191.80 195.35 170.70 210.88 146.91 217.08 C 132.65 221.22 117.61 220.19 103.00 219.27 C 100.52 219.34 97.99 220.05 95.53 219.41 C 73.71 213.78 53.99 200.55 40.37 182.62 C 26.68 164.87 19.26 142.42 19.48 120.03 C 19.47 91.07 32.73 62.36 54.96 43.78 C 56.68 42.58 57.15 40.49 57.82 38.63 Z" />
<path fill="#1b72ab" d=" M 179.37 30.42 C 181.34 26.60 183.83 23.01 186.53 19.66 C 187.14 19.86 188.37 20.26 188.98 20.46 C 186.23 24.43 183.48 28.39 180.67 32.32 C 180.35 31.84 179.70 30.89 179.37 30.42 Z" />
<path fill="#1b72ab" d=" M 44.20 26.63 C 46.09 25.01 48.02 23.45 49.97 21.90 C 52.68 25.61 55.48 29.25 58.01 33.08 C 56.25 34.37 54.51 35.67 52.76 36.98 C 49.99 33.46 47.18 29.98 44.20 26.63 Z" />
<path fill="#1b72ab" d=" M 186.02 35.64 C 188.05 31.56 191.52 28.42 194.12 24.72 C 196.02 26.31 197.91 27.92 199.75 29.57 C 196.70 32.91 193.73 36.32 190.70 39.69 C 189.11 38.37 187.47 37.11 186.02 35.64 Z" />
<path fill="#1b72ab" d=" M 37.26 32.82 C 37.73 32.32 38.66 31.31 39.12 30.80 C 42.05 34.01 45.04 37.16 48.03 40.31 C 47.78 40.92 47.28 42.14 47.04 42.75 C 43.66 39.56 40.50 36.15 37.26 32.82 Z" />
<path fill="#1b72ab" d=" M 191.96 41.01 C 194.99 37.60 198.10 34.27 201.12 30.86 C 202.98 32.52 204.80 34.22 206.59 35.95 C 203.29 38.91 200.37 42.31 196.83 45.00 C 195.01 43.93 193.53 42.39 191.96 41.01 Z" />
<path fill="#1b72ab" d=" M 63.61 58.67 C 77.53 45.75 95.96 37.76 114.91 36.53 C 144.92 33.97 175.71 49.18 191.81 74.64 C 188.45 75.00 187.00 71.92 185.24 69.74 C 173.30 54.74 155.97 44.09 137.15 40.39 C 117.77 36.29 97.03 39.93 79.91 49.78 C 61.95 60.19 48.13 77.61 42.27 97.54 C 36.27 117.15 38.05 139.22 47.49 157.45 C 51.13 157.78 56.09 158.58 56.57 163.07 C 58.29 168.36 52.00 173.58 47.14 170.93 C 42.41 169.00 42.34 162.63 45.29 159.12 C 36.75 141.89 34.17 121.77 38.23 102.96 C 42.01 86.12 50.82 70.32 63.61 58.67 Z" />
<path fill="#1b72ab" d=" M 27.68 42.92 C 29.26 41.11 30.84 39.30 32.40 37.48 C 35.85 40.50 39.21 43.63 42.56 46.77 C 41.05 48.40 39.54 50.04 38.04 51.69 C 34.65 48.69 31.15 45.82 27.68 42.92 Z" />
<path fill="#1b72ab" d=" M 210.81 40.99 C 211.49 41.62 212.16 42.25 212.83 42.87 C 209.20 45.85 205.66 48.92 201.96 51.79 C 201.71 51.22 201.21 50.06 200.96 49.48 C 204.28 46.70 207.58 43.88 210.81 40.99 Z" />
<path fill="#1b72ab" d=" M 22.03 50.34 C 23.55 48.41 25.05 46.46 26.56 44.53 C 29.92 47.48 33.61 50.02 36.93 53.01 C 35.84 54.87 34.48 56.55 33.19 58.27 C 29.45 55.65 25.67 53.09 22.03 50.34 Z" />
<path fill="#1b72ab" d=" M 205.97 56.17 C 209.59 53.52 213.21 50.87 216.89 48.31 C 218.24 50.29 219.60 52.26 220.97 54.23 C 217.25 56.83 213.37 59.19 209.62 61.75 C 208.40 59.90 207.17 58.04 205.97 56.17 Z" />
<path fill="#1b72ab" d=" M 18.22 56.06 C 22.12 58.47 26.28 60.51 29.86 63.40 C 29.85 64.60 28.47 65.29 27.51 64.49 C 23.92 62.69 20.60 60.42 17.12 58.42 C 17.49 57.64 17.85 56.85 18.22 56.06 Z" />
<path fill="#1b72ab" d=" M 13.81 64.14 C 17.69 66.34 21.81 68.10 25.60 70.46 C 25.03 72.45 24.06 74.29 23.25 76.18 C 19.02 74.66 14.97 72.72 10.82 71.00 C 11.70 68.66 12.72 66.38 13.81 64.14 Z" />
<path fill="#1b72ab" d=" M 7.39 79.31 C 8.08 77.07 8.97 74.90 9.80 72.72 C 14.01 74.46 18.24 76.14 22.41 78.00 C 21.57 80.00 20.76 82.01 19.97 84.02 C 15.81 82.37 11.34 81.48 7.39 79.31 Z" />
<path fill="#1b72ab" d=" M 3.85 88.04 C 4.37 87.59 5.42 86.70 5.95 86.25 C 9.85 87.19 13.76 88.22 17.52 89.63 C 17.76 90.18 18.23 91.29 18.46 91.85 C 13.47 91.13 8.60 89.71 3.85 88.04 Z" />
<path fill="#1b72ab" d=" M 2.79 95.20 C 7.27 95.68 11.63 96.81 16.04 97.72 C 15.79 99.80 15.54 101.87 15.27 103.95 C 10.75 103.61 6.29 102.76 1.78 102.27 C 2.15 99.92 2.48 97.56 2.79 95.20 Z" />
<path fill="#1b72ab" d=" M 1.37 104.33 C 5.85 104.63 10.29 105.37 14.76 105.86 C 14.63 108.06 14.52 110.26 14.41 112.47 C 9.96 112.11 5.52 111.65 1.05 111.55 C 1.16 109.14 1.26 106.74 1.37 104.33 Z" />
<path fill="#1b72ab" d=" M 0.00 117.87 L 0.01 118.55 C 5.06 118.87 11.27 116.52 15.42 120.33 C 10.30 120.90 5.13 120.88 0.00 120.45 L 0.00 117.87 Z" />
<path fill="#1b72ab" d=" M 1.02 127.60 C 5.48 127.32 9.95 127.06 14.41 126.70 C 14.57 128.84 14.72 130.99 14.83 133.15 C 10.46 133.66 6.11 134.35 1.73 134.87 C 1.50 132.44 1.26 130.02 1.02 127.60 Z" />
<path fill="#1b72ab" d=" M 2.01 136.90 C 6.49 136.30 10.94 135.48 15.44 135.02 C 15.77 137.13 16.10 139.23 16.44 141.34 C 12.03 142.18 7.67 143.27 3.23 143.87 C 2.75 141.56 2.36 139.23 2.01 136.90 Z" />
<path fill="#1b72ab" d=" M 183.76 174.06 C 191.34 165.24 196.61 154.74 200.21 143.74 C 202.89 146.39 200.70 149.81 199.65 152.65 C 196.24 161.11 191.38 168.89 185.65 175.97 C 186.12 178.44 187.36 181.32 185.74 183.63 C 183.97 186.65 179.70 188.42 176.55 186.41 C 172.04 184.19 171.69 176.51 176.35 174.26 C 178.59 172.80 181.34 173.68 183.76 174.06 Z" />
<path fill="#1b72ab" d=" M 4.99 150.66 C 9.13 149.55 13.22 147.90 17.49 147.54 C 17.92 147.90 18.78 148.60 19.21 148.96 C 14.70 150.63 10.07 151.93 5.38 152.96 C 5.28 152.38 5.09 151.24 4.99 150.66 Z" />
<path fill="#1b72ab" d=" M 8.23 159.41 C 12.20 157.69 16.39 156.54 20.42 154.98 C 21.24 156.97 22.05 158.97 22.84 160.98 C 18.69 162.75 14.59 164.60 10.47 166.43 C 9.68 164.16 7.84 161.83 8.23 159.41 Z" />
<path fill="#1b72ab" d=" M 11.27 168.22 C 15.36 166.32 19.45 164.43 23.63 162.74 C 24.56 164.65 25.53 166.54 26.51 168.43 C 22.47 170.55 18.44 172.68 14.47 174.92 C 13.37 172.70 12.30 170.46 11.27 168.22 Z" />
<path fill="#1b72ab" d=" M 28.35 174.42 C 29.08 174.48 30.53 174.59 31.25 174.65 C 27.66 177.97 23.28 180.21 19.23 182.88 C 18.80 182.10 18.38 181.31 17.96 180.53 C 21.44 178.52 24.71 176.13 28.35 174.42 Z" />
<path fill="#1b72ab" d=" M 57.85 180.53 C 60.01 179.20 62.16 174.81 64.85 177.48 C 63.08 179.21 61.31 180.94 59.54 182.68 C 58.98 181.96 58.42 181.24 57.85 180.53 Z" />
<path fill="#1b72ab" d=" M 65.04 186.29 C 66.82 184.93 68.40 180.42 70.85 183.06 C 69.73 184.91 68.36 186.58 67.07 188.32 C 66.72 188.34 66.01 188.39 65.65 188.42 C 65.50 187.89 65.19 186.82 65.04 186.29 Z" />
<path fill="#1b72ab" d=" M 68.14 189.99 C 69.46 188.15 70.80 186.32 72.13 184.48 C 74.03 185.67 75.92 186.88 77.82 188.07 C 76.58 190.09 75.31 192.10 74.02 194.10 C 72.05 192.74 70.09 191.37 68.14 189.99 Z" />
<path fill="#1b72ab" d=" M 75.74 194.93 C 77.01 192.93 78.28 190.93 79.59 188.96 C 80.05 189.38 80.96 190.23 81.42 190.65 C 80.22 192.61 79.05 194.59 77.88 196.57 C 77.35 196.16 76.27 195.34 75.74 194.93 Z" />
<path fill="#1b72ab" d=" M 124.12 201.13 C 138.34 200.23 152.38 195.97 164.42 188.29 C 165.63 190.25 166.84 192.22 168.02 194.20 C 154.59 202.65 138.89 207.66 122.97 207.77 C 118.03 208.00 113.11 207.53 108.19 207.20 C 108.38 204.88 108.66 202.57 108.96 200.27 C 114.02 200.53 119.05 201.35 124.12 201.13 Z" />
<path fill="#1b72ab" d=" M 83.90 199.49 C 85.17 197.13 85.46 193.24 88.93 193.16 C 88.24 195.71 87.28 198.19 86.30 200.65 C 85.50 200.26 84.70 199.87 83.90 199.49 Z" />
<path fill="#1b72ab" d=" M 88.06 201.27 C 88.94 199.12 89.82 196.97 90.73 194.84 C 92.78 195.62 94.83 196.40 96.89 197.19 C 96.23 199.37 95.55 201.55 94.88 203.73 C 92.59 202.95 90.32 202.12 88.06 201.27 Z" />
</svg>
